<?xml version="1.0" encoding="UTF-8"?>
<svg width="230px" height="47px" viewBox="0 0 230 47" version="1.1" xmlns="http://www.w3.org/2000/svg" xmlns:xlink="http://www.w3.org/1999/xlink">
    <!-- Generator: Sketch 48.2 (47327) - http://www.bohemiancoding.com/sketch -->
    <title>Vertical Black Text</title>
    <desc>Created with Sketch.</desc>
    <defs>
        <polygon id="path-1" points="0 0.3734 16.7711142 0.3734 16.7711142 17.2903489 0 17.2903489"></polygon>
        <polygon id="path-3" points="0 46.9418 229.96778 46.9418 229.96778 -0.0002 0 -0.0002"></polygon>
    </defs>
    <g id="Header-Copy-2" stroke="none" stroke-width="1" fill="none" fill-rule="evenodd" transform="translate(-81.000000, -14.000000)">
        <g id="Vertical-White-Text" transform="translate(81.000000, 14.228506)">
            <g id="Page-1">
                <path d="M43.0127263,10.84645 C40.7152047,6.82445 36.4101401,4.11645 31.4775323,4.11645 C26.5444289,4.11645 22.2393642,6.82445 19.9418427,10.84645 C23.4419073,9.18245 27.3514116,8.25195 31.4775323,8.25195 C35.6026616,8.25195 39.5126616,9.18245 43.0127263,10.84645" id="Fill-1" fill="#EF5530"></path>
                <path d="M28.3797198,0.46145 C23.9358621,-0.74405 18.9928448,0.41195 15.5051724,3.93045 C12.0175,7.44845 10.8714655,12.43395 12.0665733,16.91695 C13.3746983,13.24395 15.4868319,9.79695 18.4044612,6.85495 C21.3215948,3.91195 24.7383836,1.78095 28.3797198,0.46145" id="Fill-3" fill="#F5911E"></path>
                <path d="M10.7526983,3.5552 C6.76537069,5.8727 4.08071552,10.2152 4.08071552,15.1907 C4.08071552,20.1662 6.76537069,24.5092 10.753194,26.8262 C9.10353879,23.2962 8.18106034,19.3522 8.18106034,15.1907 C8.18106034,11.0297 9.10353879,7.0857 10.7526983,3.5552" id="Fill-5" fill="#FFCC25"></path>
                <g id="Group-9" transform="translate(0.000000, 17.941800)">
                    <mask id="mask-2" fill="white">
                        <use xlink:href="#path-1"></use>
                    </mask>
                    <g id="Clip-8"></g>
                    <path d="M0.457471983,0.3734 C-0.737635776,4.8559 0.408398707,9.8419 3.89607112,13.3599 C7.38473491,16.8779 12.3267608,18.0344 16.7711142,16.8289 C13.129778,15.5089 9.71298922,13.3784 6.79535991,10.4359 C3.87822629,7.4929 1.76609267,4.0464 0.457471983,0.3734" id="Fill-7" fill="#B8CF32" mask="url(#mask-2)"></path>
                </g>
                <path d="M3.52455172,36.09545 C5.82207328,40.11745 10.1271379,42.82545 15.0597457,42.82545 C19.9923534,42.82545 24.2979138,40.11745 26.5954353,36.09545 C23.0953707,37.75945 19.1853707,38.68945 15.0597457,38.68945 C10.9341207,38.68945 7.02461638,37.75945 3.52455172,36.09545" id="Fill-10" fill="#1EA34E"></path>
                <path d="M18.1570625,46.48025 C22.6014159,47.68575 27.5439375,46.52975 31.0321056,43.01175 C34.519778,39.49325 35.6658125,34.50775 34.4707047,30.02475 C33.1620841,33.69775 31.0499504,37.14475 28.1328168,40.08725 C25.2156832,43.02975 21.7983987,45.16075 18.1570625,46.48025" id="Fill-12" fill="#4290CD"></path>
                <path d="M35.7840841,43.38675 C39.7719073,41.06925 42.4560668,36.72625 42.4560668,31.75125 C42.4560668,26.77575 39.7719073,22.43275 35.7840841,20.11525 C37.4337392,23.64575 38.3562177,27.58975 38.3562177,31.75125 C38.3562177,35.91225 37.4337392,39.85625 35.7840841,43.38675" id="Fill-14" fill="#6F54A1"></path>
                <path d="M46.079806,28.6267 C47.2749138,24.1437 46.1288793,19.1582 42.6407112,15.6402 C39.1525431,12.1222 34.2105172,10.9657 29.7661638,12.1712 C33.4075,13.4912 36.8242888,15.6217 39.7414224,18.5642 C42.6590517,21.5067 44.7711853,24.9537 46.079806,28.6267" id="Fill-16" fill="#CF1874"></path>
                <path d="M61.4388987,21.74705 C61.4388987,20.85355 61.9519375,20.35355 62.0183599,20.29205 C62.5844375,19.72005 63.2749332,19.66955 63.500472,19.66955 C63.5336832,19.66955 63.5559892,19.67105 63.5678858,19.67155 L63.7126272,19.68005 L66.3110323,19.67055 L66.3021099,30.90405 C66.3031013,31.31455 66.3040927,31.77955 65.7043082,32.38505 C65.1575625,32.93655 64.500278,32.97955 64.3119159,32.97955 L63.4543728,32.97905 C63.4459461,32.97905 62.6186401,32.97155 61.9841573,32.33205 C61.4260108,31.76905 61.4359246,30.99655 61.4393944,30.90155 L61.4388987,21.74705 Z M66.6367004,10.47055 L66.3199547,10.37355 L66.3199547,16.41005 L62.6696961,16.40955 C62.6290496,16.40805 62.5928642,16.40605 62.5378427,16.40605 C62.1650841,16.40605 60.8594375,16.48555 59.7193513,17.50555 C58.3854504,18.69805 58.1861832,20.04705 58.1861832,20.74555 L58.1837047,31.71705 C58.181722,31.79205 58.1504935,33.57605 59.4710108,34.90855 C60.7409677,36.18905 62.2647177,36.25405 62.5571746,36.25405 L65.2368728,36.25455 C65.4619159,36.25455 67.4734246,36.20005 68.7632091,34.31905 C68.8970453,34.14005 69.5647392,33.17155 69.5647392,31.69755 L69.5647392,11.70405 L69.4328858,11.63405 C69.0234461,11.41605 67.9304504,10.86655 66.6367004,10.47055 Z" id="Fill-18" fill="#FFFFFF"></path>
                <path d="M73.6254289,10.4729 L73.3081875,10.3759 L73.3081875,14.1264 L76.552972,14.1264 L76.552972,11.7059 L76.4216142,11.6359 C75.9100625,11.3649 74.8676272,10.8529 73.6254289,10.4729" id="Fill-20" fill="#FFFFFF"></path>
                <mask id="mask-4" fill="white">
                    <use xlink:href="#path-3"></use>
                </mask>
                <g id="Clip-23"></g>
                <polygon id="Fill-22" fill="#FFFFFF" mask="url(#mask-4)" points="73.3030819 36.2543 76.5513362 36.2543 76.5513362 16.3978 73.3030819 16.3978"></polygon>
                <path d="M95.2358621,10.4729 L94.9186207,10.3759 L94.9186207,14.1264 L98.1634052,14.1264 L98.1634052,11.7059 L98.0325431,11.6359 C97.5209914,11.3649 96.4780603,10.8529 95.2358621,10.4729" id="Fill-24" fill="#FFFFFF" mask="url(#mask-4)"></path>
                <polygon id="Fill-25" fill="#FFFFFF" mask="url(#mask-4)" points="94.9136638 36.2543 98.1619181 36.2543 98.1619181 16.3978 94.9136638 16.3978"></polygon>
                <path d="M194.566418,10.4729 L194.249177,10.3759 L194.249177,14.1264 L197.493961,14.1264 L197.493961,11.7059 L197.363099,11.6359 C196.851547,11.3649 195.808616,10.8529 194.566418,10.4729" id="Fill-26" fill="#FFFFFF" mask="url(#mask-4)"></path>
                <polygon id="Fill-27" fill="#FFFFFF" mask="url(#mask-4)" points="194.243922 36.2543 197.492177 36.2543 197.492177 16.3978 194.243922 16.3978"></polygon>
                <path d="M88.1378836,32.98705 L85.3630129,32.98505 C85.0903836,32.98505 84.450944,32.98505 83.8278621,32.34205 C83.243444,31.73955 83.2508793,31.01155 83.2533578,30.92205 L83.2533578,21.74705 C83.2533578,21.56055 83.2969784,20.90605 83.8590905,20.30005 C84.4212026,19.69505 85.2445431,19.67705 85.3382284,19.67705 L86.0822586,19.67305 C86.6280129,19.67305 87.1554267,19.90155 87.5663534,20.31555 C88.1656422,20.92005 88.138875,21.68805 88.1373879,21.73155 L88.1378836,32.98705 Z M89.82075,17.50405 C89.7513534,17.44355 88.5408793,16.39805 87.0359655,16.39805 L84.4534224,16.41555 L84.3448664,16.41305 C83.9443491,16.41305 82.5380776,16.51505 81.230944,17.83305 C81.1808793,17.88705 79.994694,19.17855 79.994694,20.85105 L79.994694,31.79705 C79.9966767,31.87305 80.0551681,33.67555 81.3072802,34.93805 C82.4909871,36.13255 83.8957716,36.26155 84.4449957,36.26155 L88.1245,36.26155 L88.1249957,39.58055 C88.1254914,39.58855 88.1517629,40.40405 87.5485086,41.02955 C87.4335086,41.16755 86.9928405,41.61755 86.1437241,41.61755 L81.48325,41.63005 L81.48325,44.90405 L87.0513319,44.90705 L87.1132931,44.90805 C87.4161595,44.90805 88.994931,44.83105 90.3387457,43.31005 C90.3818707,43.26205 91.4000172,42.11655 91.4000172,40.32705 L91.3995216,20.90155 C91.4198448,20.58255 91.4396724,18.91955 89.82075,17.50405 Z" id="Fill-28" fill="#FFFFFF" mask="url(#mask-4)"></path>
                <path d="M120.845172,30.93455 C120.845172,31.82605 120.250345,32.36505 120.225065,32.38755 L120.213664,32.39855 C119.677328,32.94105 118.898599,32.97555 118.87431,32.97655 L118.024203,32.97705 C117.216228,32.97705 116.628341,32.43005 116.609504,32.41255 C116.032522,31.83105 115.978491,31.05955 115.97403,30.98605 L115.973534,28.62905 C115.973534,28.49105 116.084569,27.82205 116.597608,27.30505 C117.09875,26.79905 117.888384,26.74205 117.989009,26.73705 L120.83625,26.73705 L120.845172,30.93455 Z M124.094914,20.74705 C124.094914,19.10155 122.947888,17.88305 122.895345,17.82855 C121.574332,16.49605 120.219116,16.39255 119.835453,16.39255 C119.755151,16.39255 119.704591,16.39605 119.700625,16.39705 L113.985819,16.39955 L113.985819,19.66805 L118.821272,19.66805 C119.681293,19.66805 120.256789,20.27955 120.26819,20.29205 C120.884332,20.91355 120.845172,21.71505 120.844181,21.73805 L120.845172,23.46905 L117.138901,23.46905 C115.257263,23.46905 114.04431,24.77105 114.000194,24.81905 C112.739159,26.09205 112.724289,27.78305 112.724289,27.80005 L112.724289,31.69555 C112.724289,33.65505 113.925841,34.83705 113.934267,34.84505 C115.315259,36.23805 117.001595,36.25455 117.018448,36.25455 L119.784892,36.25455 C120.421358,36.25455 121.670496,36.07005 122.896336,34.83355 C124.182155,33.53655 124.095905,31.79055 124.095905,31.78805 L124.094914,20.74705 Z" id="Fill-29" fill="#FFFFFF" mask="url(#mask-4)"></path>
                <path d="M133.109129,32.97365 C133.0665,32.96915 132.205983,32.97815 131.624043,32.35065 C131.061931,31.74515 131.01831,31.09065 131.01831,30.90265 L130.99303,11.69215 L130.861672,11.62265 C130.351608,11.35165 129.308677,10.84015 128.066478,10.45965 L127.749237,10.36215 L127.749237,30.03715 L127.759647,31.80015 C127.759647,33.47265 128.945336,34.76415 129.001349,34.82365 C130.41456,36.24865 131.934345,36.25015 132.209453,36.23565 L134.068784,36.25465 L134.067793,32.97815 L133.109129,32.97365 Z" id="Fill-30" fill="#FFFFFF" mask="url(#mask-4)"></path>
                <path d="M147.948392,11.25805 L147.816539,11.18855 C147.306474,10.91755 146.264039,10.40655 145.021345,10.02555 L144.704103,9.92805 L144.704103,16.37005 L141.017164,16.37005 L141.017164,19.64605 L144.704103,19.64605 L144.703112,29.53355 L144.714017,31.80005 C144.714017,33.47255 145.899211,34.76405 145.955224,34.82355 C147.368435,36.24855 148.88822,36.24955 149.163328,36.23555 L151.022659,36.25455 L151.021668,32.97805 L150.0635,32.97355 C150.015418,32.96655 149.159858,32.97805 148.578414,32.35105 C148.016302,31.74555 147.972185,31.09105 147.972185,30.90255 L147.948392,19.64605 L151.634836,19.64605 L151.634836,16.37005 L147.948392,16.37005 L147.948392,11.25805 Z" id="Fill-31" fill="#FFFFFF" mask="url(#mask-4)"></path>
                <path d="M107.503685,11.25805 L107.371832,11.18855 C106.861767,10.91755 105.819828,10.40655 104.577134,10.02555 L104.259397,9.92805 L104.259397,16.37005 L100.572457,16.37005 L100.572457,19.64605 L104.259397,19.64605 L104.258405,29.53355 L104.26931,31.80005 C104.26931,33.47255 105.455,34.76405 105.510517,34.82355 C106.923728,36.24855 108.443513,36.24955 108.718621,36.23555 L110.577953,36.25455 L110.577457,32.97805 L109.618793,32.97355 C109.570711,32.96655 108.715151,32.97805 108.133707,32.35105 C107.571595,31.74555 107.527974,31.09105 107.527974,30.90255 L107.503685,19.64605 L111.190129,19.64605 L111.190129,16.37005 L107.503685,16.37005 L107.503685,11.25805 Z" id="Fill-32" fill="#FFFFFF" mask="url(#mask-4)"></path>
                <path d="M186.888582,32.33255 C186.254099,32.97205 185.426297,32.97955 185.417871,32.97955 L184.582634,32.97955 C184.334293,32.97955 183.699315,32.92155 183.16744,32.38555 C182.567159,31.78005 182.568647,31.31455 182.570134,30.90355 L182.561211,19.67055 L185.336082,19.66955 L185.392591,19.66855 C185.646384,19.66855 186.298216,19.73105 186.880651,20.31805 C186.886103,20.32305 187.433841,20.82805 187.433841,21.74755 L187.433841,30.93055 C187.434336,30.93905 187.461599,31.75405 186.888582,32.33255 Z M190.68606,20.74605 C190.68606,20.04755 190.486793,18.69805 189.153388,17.50605 C187.801642,16.29705 186.230306,16.40805 186.234272,16.40905 L182.552784,16.41055 L182.552784,11.70355 L182.420931,11.63405 C181.910371,11.36355 180.867935,10.85205 179.625737,10.47105 L179.308496,10.37405 L179.308496,31.69805 C179.308496,33.27455 180.085241,34.28705 180.085241,34.28705 C181.393366,36.19205 183.394466,36.25455 183.650241,36.25455 L183.653216,36.25455 L186.290284,36.25455 C186.707159,36.25455 188.163,36.15755 189.400737,34.90905 C190.729185,33.56955 190.691513,31.81205 190.68953,31.74555 L190.68606,20.74605 Z" id="Fill-33" fill="#FFFFFF" mask="url(#mask-4)"></path>
                <path d="M211.305164,17.4951 C211.222384,17.4226 210.009927,16.3896 208.521371,16.3896 L205.938828,16.4066 L205.82928,16.4041 C205.429259,16.4041 204.022987,16.5061 202.716349,17.8246 C202.665789,17.8786 201.480099,19.1696 201.480099,20.8421 L201.469194,36.2546 L204.727858,36.2546 L204.738763,21.7376 C204.738763,21.5521 204.782384,20.8976 205.344496,20.2916 C205.906112,19.6861 206.729948,19.6686 206.823138,19.6686 L207.567168,19.6641 C207.953806,19.6641 208.525832,19.7756 209.051263,20.3076 C209.638655,20.8986 209.625767,21.6311 209.621802,21.7231 L209.612384,36.2546 L212.874022,36.2546 L212.884431,20.8926 C212.90525,20.5736 212.925573,18.9111 211.305164,17.4951" id="Fill-34" fill="#FFFFFF" mask="url(#mask-4)"></path>
                <path d="M170.35411,17.81885 L170.348162,17.82435 C170.298097,17.87885 169.112407,19.16985 169.112407,20.84185 L169.101998,36.25435 L172.360662,36.25435 L172.371071,21.73785 C172.371071,21.55185 172.414692,20.89685 172.9773,20.29135 C173.559239,19.66335 174.425705,19.67085 174.465856,19.66885 L176.895726,19.66485 L176.897213,16.38935 L173.575597,16.40685 C173.283636,16.39585 171.767321,16.39385 170.35411,17.81885" id="Fill-35" fill="#FFFFFF" mask="url(#mask-4)"></path>
                <path d="M162.518446,30.906 C162.518446,31.092 162.474825,31.7465 161.911722,32.3525 C161.351097,32.958 160.526765,32.975 160.433575,32.975 L159.689545,32.9795 C159.302907,32.9795 158.730881,32.868 158.20545,32.3365 C157.618058,31.745 157.631442,31.0125 157.63392,30.921 L157.64433,16.3895 L154.382196,16.3895 L154.372282,31.751 C154.351463,32.07 154.33114,33.733 155.947088,35.145 C155.959481,35.156 157.199696,36.2535 158.73336,36.2545 L161.317886,36.237 L161.426938,36.2395 C161.826959,36.2395 163.233231,36.1375 164.54086,34.8195 C164.59142,34.765 165.776614,33.474 165.776614,31.802 L165.787519,16.3895 L162.528856,16.3895 L162.518446,30.906 Z" id="Fill-36" fill="#FFFFFF" mask="url(#mask-4)"></path>
                <path d="M218.635918,21.71265 C218.635918,20.82115 219.230746,20.28215 219.267427,20.24865 C219.804754,19.70565 220.582987,19.67115 220.625121,19.66965 L221.456888,19.66965 C222.264862,19.66965 222.853246,20.21665 222.872082,20.23465 C223.462448,20.82915 223.505573,21.63915 223.50706,21.66165 L223.507556,24.01765 C223.507556,24.15565 223.396522,24.82515 222.883978,25.34215 C222.383332,25.84765 221.592707,25.90465 221.517362,25.90915 L218.645336,25.90965 L218.635918,21.71265 Z M225.481392,27.82765 C226.742427,26.55465 226.756802,24.86415 226.756802,24.84715 L226.756802,20.95165 C226.756802,19.04315 225.595401,17.84965 225.545832,17.79965 C224.165832,16.40865 222.479991,16.39265 222.463138,16.39265 L219.69719,16.39265 C219.060228,16.39265 217.810595,16.57715 216.584754,17.81315 C215.299927,19.11015 215.385185,20.85615 215.385681,20.85865 L215.386672,31.90065 C215.386672,33.54565 216.533698,34.76415 216.585746,34.81865 C217.906263,36.15115 219.261974,36.25465 219.645638,36.25465 C219.726435,36.25465 219.7765,36.25065 219.780466,36.24965 L225.495272,36.24715 L225.495272,32.97915 L220.660315,32.97915 C219.800293,32.97915 219.224797,32.36765 219.213397,32.35515 C218.596759,31.73365 218.635918,30.93165 218.636909,30.90865 L218.635918,29.17815 L222.342685,29.17815 C224.223828,29.17815 225.437276,27.87565 225.481392,27.82765 Z" id="Fill-37" fill="#FFFFFF" mask="url(#mask-4)"></path>
                <path d="M228.11405,34.82545 L228.287045,34.82545 C228.488791,34.82545 228.651873,34.75795 228.651873,34.59295 C228.651873,34.44795 228.546291,34.35095 228.3153,34.35095 C228.219631,34.35095 228.152713,34.36045 228.11405,34.37045 L228.11405,34.82545 Z M228.104136,35.72645 L227.739308,35.72645 L227.739308,34.13795 C227.883554,34.10845 228.084804,34.08895 228.344545,34.08895 C228.641959,34.08895 228.776787,34.13795 228.891787,34.20545 C228.978037,34.27345 229.04545,34.39895 229.04545,34.55445 C229.04545,34.72895 228.911119,34.86445 228.719287,34.92245 L228.719287,34.94195 C228.872455,34.99995 228.9592,35.11645 229.007282,35.32945 C229.054869,35.57145 229.084114,35.66845 229.122282,35.72645 L228.728705,35.72645 C228.680623,35.66845 228.651873,35.52295 228.603791,35.33895 C228.575041,35.16445 228.478877,35.08695 228.277131,35.08695 L228.104136,35.08695 L228.104136,35.72645 Z M227.134071,34.89345 C227.134071,35.60045 227.652563,36.16245 228.363877,36.16245 C229.054869,36.16245 229.564438,35.60045 229.564438,34.90295 C229.564438,34.19595 229.054869,33.62395 228.353963,33.62395 C227.652563,33.62395 227.134071,34.19595 227.134071,34.89345 Z M229.967433,34.89345 C229.967433,35.79395 229.266528,36.50145 228.353963,36.50145 C227.451313,36.50145 226.731075,35.79395 226.731075,34.89345 C226.731075,34.01195 227.451313,33.30445 228.353963,33.30445 C229.266528,33.30445 229.967433,34.01195 229.967433,34.89345 Z" id="Fill-38" fill="#FFFFFF" mask="url(#mask-4)"></path>
            </g>
        </g>
    </g>
</svg>