<?xml version="1.0" encoding="UTF-8" standalone="no"?>
<!-- Created with Inkscape (http://www.inkscape.org/) -->

<svg
   xmlns:dc="http://purl.org/dc/elements/1.1/"
   xmlns:cc="http://creativecommons.org/ns#"
   xmlns:rdf="http://www.w3.org/1999/02/22-rdf-syntax-ns#"
   xmlns:svg="http://www.w3.org/2000/svg"
   xmlns="http://www.w3.org/2000/svg"
   xmlns:xlink="http://www.w3.org/1999/xlink"
   xmlns:sodipodi="http://sodipodi.sourceforge.net/DTD/sodipodi-0.dtd"
   xmlns:inkscape="http://www.inkscape.org/namespaces/inkscape"
   width="1000"
   height="1000"
   viewBox="0 0 1000 1000"
   id="svg2"
   version="1.1"
   inkscape:version="0.91 r13725"
   sodipodi:docname="icon_1.svg">
  <defs
     id="defs4">
    <polygon
       points="0 0.3734 16.7711142 0.3734 16.7711142 17.2903489 0 17.2903489"
       id="path-1" />
    <polygon
       points="0 46.9418 229.96778 46.9418 229.96778 -0.0002 0 -0.0002"
       id="path-3" />
  </defs>
  <sodipodi:namedview
     id="base"
     pagecolor="#ffffff"
     bordercolor="#666666"
     borderopacity="1.0"
     inkscape:pageopacity="0.0"
     inkscape:pageshadow="2"
     inkscape:zoom="0.49497475"
     inkscape:cx="304.20495"
     inkscape:cy="465.93053"
     inkscape:document-units="px"
     inkscape:current-layer="layer3"
     showgrid="false"
     units="px"
     inkscape:window-width="1440"
     inkscape:window-height="851"
     inkscape:window-x="0"
     inkscape:window-y="1"
     inkscape:window-maximized="1" />
  <metadata
     id="metadata7">
    <rdf:RDF>
      <cc:Work
         rdf:about="">
        <dc:format>image/svg+xml</dc:format>
        <dc:type
           rdf:resource="http://purl.org/dc/dcmitype/StillImage" />
        <dc:title></dc:title>
      </cc:Work>
    </rdf:RDF>
  </metadata>
  <g
     inkscape:groupmode="layer"
     id="layer3"
     inkscape:label="background"
     style="display:inline">
    <path
       style="fill:#000000;fill-opacity:0.68720376"
       d="M 197.14258 8.5722656 C 91.091148 8.5722656 5.7148438 93.94857 5.7148438 200 L 5.7148438 802.85742 C 5.7148438 908.90885 91.091148 994.28516 197.14258 994.28516 L 805.71484 994.28516 C 911.76627 994.28516 997.14258 908.90885 997.14258 802.85742 L 997.14258 200 C 997.14258 93.94857 911.76627 8.5722656 805.71484 8.5722656 L 197.14258 8.5722656 z M 575.41797 64.271484 L 771.36523 64.271484 C 872.29792 64.271484 922.76367 109.56963 922.76367 200.16406 C 922.76367 264.52668 892.31215 305.76588 831.4082 323.88477 C 904.79423 342.27408 941.48828 391.22371 941.48828 470.73047 C 941.48828 568.89698 892.09701 617.98047 793.31641 617.98047 L 575.41797 617.98047 L 575.41797 64.271484 z M 703.25195 110.10938 L 703.25195 305.22656 L 742.63477 305.22656 C 779.00496 305.22656 797.19141 271.42224 797.19141 203.81445 C 797.19141 141.34486 777.92853 110.10937 739.40625 110.10938 L 703.25195 110.10938 z M 703.25195 351.06445 L 703.25195 572.14062 L 739.73047 572.14062 C 787.50671 572.14062 811.39453 537.79693 811.39453 469.10742 C 811.39453 390.41196 786.7534 351.06445 737.4707 351.06445 L 703.25195 351.06445 z "
       id="rect5593" />
  </g>
  <g
     inkscape:groupmode="layer"
     id="layer2"
     inkscape:label="B"
     style="display:none" />
  <g
     inkscape:label="dt logo"
     inkscape:groupmode="layer"
     id="layer1"
     transform="translate(0,-52.362161)">
    <g
       id="g5774"
       transform="translate(-145.46197,-2.0203051)">
      <g
         transform="matrix(16.201836,0,0,16.201836,214.91119,241.9469)"
         id="Vertical-White-Text"
         style="fill:none;fill-rule:evenodd;stroke:none;stroke-width:1">
        <g
           id="Page-1">
          <path
             id="Fill-1"
             d="m 43.012726,10.84645 c -2.297521,-4.022 -6.602586,-6.73 -11.535194,-6.73 -4.933103,0 -9.238168,2.708 -11.535689,6.73 3.500064,-1.664 7.409569,-2.5945 11.535689,-2.5945 4.12513,0 8.03513,0.9305 11.535194,2.5945"
             inkscape:connector-curvature="0"
             style="fill:#ef5530" />
          <path
             id="Fill-3"
             d="m 28.37972,0.46145 c -4.443858,-1.2055 -9.386875,-0.0495 -12.874548,3.469 -3.487672,3.518 -4.633707,8.5035 -3.438599,12.9865 1.308125,-3.673 3.420259,-7.12 6.337888,-10.062 2.917134,-2.943 6.333923,-5.074 9.975259,-6.3935"
             inkscape:connector-curvature="0"
             style="fill:#f5911e" />
          <path
             id="Fill-5"
             d="m 10.752698,3.5552 c -3.9873273,2.3175 -6.6719825,6.66 -6.6719825,11.6355 0,4.9755 2.6846552,9.3185 6.6724785,11.6355 -1.6496552,-3.53 -2.5721337,-7.474 -2.5721337,-11.6355 0,-4.161 0.9224785,-8.105 2.5716377,-11.6355"
             inkscape:connector-curvature="0"
             style="fill:#ffcc25" />
          <g
             transform="translate(0,17.9418)"
             id="Group-9">
            <mask
               fill="white"
               id="mask-2">
              <use
                 id="use5480"
                 xlink:href="#path-1"
                 x="0"
                 y="0"
                 width="100%"
                 height="100%" />
            </mask>
            <g
               id="Clip-8" />
            <path
               mask="url(#mask-2)"
               id="Fill-7"
               d="m 0.45747198,0.3734 c -1.19510776,4.4825 -0.0490733,9.4685 3.43859912,12.9865 3.4886638,3.518 8.4306899,4.6745 12.8750429,3.469 -3.641336,-1.32 -7.0581248,-3.4505 -9.9757541,-6.393 C 3.8782263,7.4929 1.7660927,4.0464 0.45747198,0.3734"
               inkscape:connector-curvature="0"
               style="fill:#b8cf32" />
          </g>
          <path
             id="Fill-10"
             d="m 3.5245517,36.09545 c 2.2975216,4.022 6.6025863,6.73 11.5351943,6.73 4.932607,0 9.238168,-2.708 11.535689,-6.73 -3.500064,1.664 -7.410064,2.594 -11.535689,2.594 -4.125625,0 -8.0351296,-0.93 -11.5351943,-2.594"
             inkscape:connector-curvature="0"
             style="fill:#1ea34e" />
          <path
             id="Fill-12"
             d="m 18.157062,46.48025 c 4.444354,1.2055 9.386875,0.0495 12.875044,-3.4685 3.487672,-3.5185 4.633706,-8.504 3.438599,-12.987 -1.308621,3.673 -3.420755,7.12 -6.337888,10.0625 -2.917134,2.9425 -6.334418,5.0735 -9.975755,6.393"
             inkscape:connector-curvature="0"
             style="fill:#4290cd" />
          <path
             id="Fill-14"
             d="m 35.784084,43.38675 c 3.987823,-2.3175 6.671983,-6.6605 6.671983,-11.6355 0,-4.9755 -2.68416,-9.3185 -6.671983,-11.636 1.649655,3.5305 2.572134,7.4745 2.572134,11.636 0,4.161 -0.922479,8.105 -2.572134,11.6355"
             inkscape:connector-curvature="0"
             style="fill:#6f54a1" />
          <path
             id="Fill-16"
             d="m 46.079806,28.6267 c 1.195108,-4.483 0.04907,-9.4685 -3.439095,-12.9865 -3.488168,-3.518 -8.430194,-4.6745 -12.874547,-3.469 3.641336,1.32 7.058125,3.4505 9.975258,6.393 2.91763,2.9425 5.029763,6.3895 6.338384,10.0625"
             inkscape:connector-curvature="0"
             style="fill:#cf1874" />
          <path
             id="Fill-18"
             d="m 61.438899,21.74705 c 0,-0.8935 0.513038,-1.3935 0.579461,-1.455 0.566077,-0.572 1.256573,-0.6225 1.482112,-0.6225 0.03321,0 0.05552,0.0015 0.06741,0.002 l 0.144741,0.0085 2.598405,-0.0095 -0.0089,11.2335 c 9.91e-4,0.4105 0.002,0.8755 -0.597802,1.481 -0.546746,0.5515 -1.20403,0.5945 -1.392392,0.5945 l -0.857543,-5e-4 c -0.0084,0 -0.835733,-0.0075 -1.470216,-0.647 -0.558146,-0.563 -0.548232,-1.3355 -0.544763,-1.4305 l -4.95e-4,-9.1545 z m 5.197801,-11.2765 -0.316745,-0.097 0,6.0365 -3.650259,-5e-4 c -0.04065,-0.0015 -0.07683,-0.0035 -0.131853,-0.0035 -0.372759,0 -1.678406,0.0795 -2.818492,1.0995 -1.333901,1.1925 -1.533168,2.5415 -1.533168,3.24 l -0.0025,10.9715 c -0.002,0.075 -0.03321,1.859 1.287306,3.1915 1.269957,1.2805 2.793707,1.3455 3.086164,1.3455 l 2.679698,5e-4 c 0.225043,0 2.236552,-0.0545 3.526336,-1.9355 0.133836,-0.179 0.80153,-1.1475 0.80153,-2.6215 l 0,-19.9935 -0.131853,-0.07 c -0.40944,-0.218 -1.502436,-0.7675 -2.796186,-1.1635 z"
             inkscape:connector-curvature="0"
             style="fill:#ffffff" />
          <path
             id="Fill-20"
             d="m 73.625429,10.4729 -0.317241,-0.097 0,3.7505 3.244784,0 0,-2.4205 -0.131358,-0.07 c -0.511552,-0.271 -1.553987,-0.783 -2.796185,-1.163"
             inkscape:connector-curvature="0"
             style="fill:#ffffff" />
          <mask
             fill="white"
             id="mask-4">
            <use
               id="use5491"
               xlink:href="#path-3"
               x="0"
               y="0"
               width="100%"
               height="100%" />
          </mask>
          <g
             id="Clip-23" />
          <polygon
             points="73.303082,36.2543 76.551336,36.2543 76.551336,16.3978 73.303082,16.3978 "
             mask="url(#mask-4)"
             id="Fill-22"
             style="fill:#ffffff" />
          <path
             mask="url(#mask-4)"
             id="Fill-24"
             d="m 95.235862,10.4729 -0.317241,-0.097 0,3.7505 3.244784,0 0,-2.4205 -0.130862,-0.07 c -0.511552,-0.271 -1.554483,-0.783 -2.796681,-1.163"
             inkscape:connector-curvature="0"
             style="fill:#ffffff" />
          <polygon
             points="94.913664,36.2543 98.161918,36.2543 98.161918,16.3978 94.913664,16.3978 "
             mask="url(#mask-4)"
             id="Fill-25"
             style="fill:#ffffff" />
          <path
             mask="url(#mask-4)"
             id="Fill-26"
             d="m 194.56642,10.4729 -0.31724,-0.097 0,3.7505 3.24478,0 0,-2.4205 -0.13086,-0.07 c -0.51155,-0.271 -1.55448,-0.783 -2.79668,-1.163"
             inkscape:connector-curvature="0"
             style="fill:#ffffff" />
          <polygon
             points="194.24392,36.2543 197.49218,36.2543 197.49218,16.3978 194.24392,16.3978 "
             mask="url(#mask-4)"
             id="Fill-27"
             style="fill:#ffffff" />
          <path
             mask="url(#mask-4)"
             id="Fill-28"
             d="m 88.137884,32.98705 -2.774871,-0.002 c -0.272629,0 -0.912069,0 -1.535151,-0.643 -0.584418,-0.6025 -0.576983,-1.3305 -0.574504,-1.42 l 0,-9.175 c 0,-0.1865 0.04362,-0.841 0.605732,-1.447 0.562113,-0.605 1.385453,-0.623 1.479138,-0.623 l 0.744031,-0.004 c 0.545754,0 1.073168,0.2285 1.484094,0.6425 0.599289,0.6045 0.572522,1.3725 0.571035,1.416 l 4.96e-4,11.2555 z m 1.682866,-15.483 c -0.0694,-0.0605 -1.279871,-1.106 -2.784784,-1.106 l -2.582544,0.0175 -0.108556,-0.0025 c -0.400517,0 -1.806788,0.102 -3.113922,1.42 -0.05006,0.054 -1.23625,1.3455 -1.23625,3.018 l 0,10.946 c 0.002,0.076 0.06047,1.8785 1.312586,3.141 1.183707,1.1945 2.588492,1.3235 3.137716,1.3235 l 3.679504,0 4.96e-4,3.319 c 4.95e-4,0.008 0.02677,0.8235 -0.576487,1.449 -0.115,0.138 -0.555669,0.588 -1.404785,0.588 l -4.660474,0.0125 0,3.274 5.568082,0.003 0.06196,0.001 c 0.302867,0 1.881638,-0.077 3.225453,-1.598 0.04313,-0.048 1.061271,-1.1935 1.061271,-2.983 l -4.95e-4,-19.4255 c 0.02032,-0.319 0.04015,-1.982 -1.578772,-3.3975 z"
             inkscape:connector-curvature="0"
             style="fill:#ffffff" />
          <path
             mask="url(#mask-4)"
             id="Fill-29"
             d="m 120.84517,30.93455 c 0,0.8915 -0.59483,1.4305 -0.6201,1.453 l -0.0114,0.011 c -0.53633,0.5425 -1.31506,0.577 -1.33935,0.578 l -0.85011,5e-4 c -0.80797,0 -1.39586,-0.547 -1.4147,-0.5645 -0.57698,-0.5815 -0.63101,-1.353 -0.63547,-1.4265 l -5e-4,-2.357 c 0,-0.138 0.11104,-0.807 0.62408,-1.324 0.50114,-0.506 1.29077,-0.563 1.3914,-0.568 l 2.84724,0 0.009,4.1975 z m 3.24974,-10.1875 c 0,-1.6455 -1.14702,-2.864 -1.19956,-2.9185 -1.32102,-1.3325 -2.67623,-1.436 -3.0599,-1.436 -0.0803,0 -0.13086,0.0035 -0.13482,0.0045 l -5.71481,0.0025 0,3.2685 4.83545,0 c 0.86002,0 1.43552,0.6115 1.44692,0.624 0.61614,0.6215 0.57698,1.423 0.57599,1.446 l 9.9e-4,1.731 -3.70627,0 c -1.88164,0 -3.09459,1.302 -3.13871,1.35 -1.26103,1.273 -1.2759,2.964 -1.2759,2.981 l 0,3.8955 c 0,1.9595 1.20155,3.1415 1.20998,3.1495 1.38099,1.393 3.06732,1.4095 3.08418,1.4095 l 2.76644,0 c 0.63647,0 1.88561,-0.1845 3.11145,-1.421 1.28581,-1.297 1.19957,-3.043 1.19957,-3.0455 l -0.001,-11.041 z"
             inkscape:connector-curvature="0"
             style="fill:#ffffff" />
          <path
             mask="url(#mask-4)"
             id="Fill-30"
             d="m 133.10913,32.97365 c -0.0426,-0.0045 -0.90315,0.0045 -1.48509,-0.623 -0.56211,-0.6055 -0.60573,-1.26 -0.60573,-1.448 l -0.0253,-19.2105 -0.13136,-0.0695 c -0.51006,-0.271 -1.55299,-0.7825 -2.79519,-1.163 l -0.31724,-0.0975 0,19.675 0.0104,1.763 c 0,1.6725 1.18569,2.964 1.2417,3.0235 1.41321,1.425 2.93299,1.4265 3.2081,1.412 l 1.85933,0.019 -9.9e-4,-3.2765 -0.95866,-0.0045 z"
             inkscape:connector-curvature="0"
             style="fill:#ffffff" />
          <path
             mask="url(#mask-4)"
             id="Fill-31"
             d="m 147.94839,11.25805 -0.13185,-0.0695 c -0.51007,-0.271 -1.5525,-0.782 -2.7952,-1.163 l -0.31724,-0.0975 0,6.442 -3.68694,0 0,3.276 3.68694,0 -9.9e-4,9.8875 0.0109,2.2665 c 0,1.6725 1.18519,2.964 1.2412,3.0235 1.41321,1.425 2.933,1.426 3.20811,1.412 l 1.85933,0.019 -9.9e-4,-3.2765 -0.95817,-0.0045 c -0.0481,-0.007 -0.90364,0.0045 -1.48509,-0.6225 -0.56211,-0.6055 -0.60623,-1.26 -0.60623,-1.4485 l -0.0238,-11.2565 3.68645,0 0,-3.276 -3.68645,0 0,-5.112 z"
             inkscape:connector-curvature="0"
             style="fill:#ffffff" />
          <path
             mask="url(#mask-4)"
             id="Fill-32"
             d="m 107.50369,11.25805 -0.13186,-0.0695 c -0.51006,-0.271 -1.552,-0.782 -2.7947,-1.163 l -0.31773,-0.0975 0,6.442 -3.68694,0 0,3.276 3.68694,0 -0.001,9.8875 0.0109,2.2665 c 0,1.6725 1.18569,2.964 1.24121,3.0235 1.41321,1.425 2.93299,1.426 3.2081,1.412 l 1.85933,0.019 -4.9e-4,-3.2765 -0.95867,-0.0045 c -0.0481,-0.007 -0.90364,0.0045 -1.48508,-0.6225 -0.56211,-0.6055 -0.60574,-1.26 -0.60574,-1.4485 l -0.0243,-11.2565 3.68644,0 0,-3.276 -3.68644,0 0,-5.112 z"
             inkscape:connector-curvature="0"
             style="fill:#ffffff" />
          <path
             mask="url(#mask-4)"
             id="Fill-33"
             d="m 186.88858,32.33255 c -0.63448,0.6395 -1.46228,0.647 -1.47071,0.647 l -0.83524,0 c -0.24834,0 -0.88331,-0.058 -1.41519,-0.594 -0.60028,-0.6055 -0.59879,-1.071 -0.59731,-1.482 l -0.009,-11.233 2.77487,-10e-4 0.0565,-0.001 c 0.25379,0 0.90563,0.0625 1.48806,0.6495 0.005,0.005 0.55319,0.51 0.55319,1.4295 l 0,9.183 c 5e-4,0.0085 0.0278,0.8235 -0.54526,1.402 z m 3.79748,-11.5865 c 0,-0.6985 -0.19927,-2.048 -1.53267,-3.24 -1.35175,-1.209 -2.92308,-1.098 -2.91912,-1.097 l -3.68149,0.0015 0,-4.707 -0.13185,-0.0695 c -0.51056,-0.2705 -1.553,-0.782 -2.79519,-1.163 l -0.31724,-0.097 0,21.324 c 0,1.5765 0.77674,2.589 0.77674,2.589 1.30813,1.905 3.30923,1.9675 3.565,1.9675 l 0.003,0 2.63706,0 c 0.41688,0 1.87272,-0.097 3.11046,-1.3455 1.32844,-1.3395 1.29077,-3.097 1.28879,-3.1635 l -0.003,-10.9995 z"
             inkscape:connector-curvature="0"
             style="fill:#ffffff" />
          <path
             mask="url(#mask-4)"
             id="Fill-34"
             d="m 211.30516,17.4951 c -0.0828,-0.0725 -1.29523,-1.1055 -2.78379,-1.1055 l -2.58254,0.017 -0.10955,-0.0025 c -0.40002,0 -1.80629,0.102 -3.11293,1.4205 -0.0506,0.054 -1.23625,1.345 -1.23625,3.0175 l -0.0109,15.4125 3.25867,0 0.0109,-14.517 c 0,-0.1855 0.0436,-0.84 0.60574,-1.446 0.56161,-0.6055 1.38545,-0.623 1.47864,-0.623 l 0.74403,-0.0045 c 0.38664,0 0.95866,0.1115 1.48409,0.6435 0.58739,0.591 0.57451,1.3235 0.57054,1.4155 l -0.009,14.5315 3.26164,0 0.0104,-15.362 c 0.0208,-0.319 0.0411,-1.9815 -1.57927,-3.3975"
             inkscape:connector-curvature="0"
             style="fill:#ffffff" />
          <path
             mask="url(#mask-4)"
             id="Fill-35"
             d="m 170.35411,17.81885 -0.006,0.0055 c -0.0501,0.0545 -1.23575,1.3455 -1.23575,3.0175 l -0.0104,15.4125 3.25866,0 0.0104,-14.5165 c 0,-0.186 0.0436,-0.841 0.60623,-1.4465 0.58194,-0.628 1.4484,-0.6205 1.48856,-0.6225 l 2.42987,-0.004 0.001,-3.2755 -3.32161,0.0175 c -0.29196,-0.011 -1.80828,-0.013 -3.22149,1.412"
             inkscape:connector-curvature="0"
             style="fill:#ffffff" />
          <path
             mask="url(#mask-4)"
             id="Fill-36"
             d="m 162.51845,30.906 c 0,0.186 -0.0436,0.8405 -0.60673,1.4465 -0.56062,0.6055 -1.38496,0.6225 -1.47815,0.6225 l -0.74403,0.0045 c -0.38663,0 -0.95866,-0.1115 -1.48409,-0.643 -0.58739,-0.5915 -0.57401,-1.324 -0.57153,-1.4155 l 0.0104,-14.5315 -3.26213,0 -0.01,15.3615 c -0.0208,0.319 -0.0411,1.982 1.57481,3.394 0.0124,0.011 1.25261,1.1085 2.78627,1.1095 l 2.58453,-0.0175 0.10905,0.0025 c 0.40002,0 1.80629,-0.102 3.11392,-1.42 0.0506,-0.0545 1.23575,-1.3455 1.23575,-3.0175 l 0.0109,-15.4125 -3.25866,0 -0.0104,14.5165 z"
             inkscape:connector-curvature="0"
             style="fill:#ffffff" />
          <path
             mask="url(#mask-4)"
             id="Fill-37"
             d="m 218.63592,21.71265 c 0,-0.8915 0.59483,-1.4305 0.63151,-1.464 0.53732,-0.543 1.31556,-0.5775 1.35769,-0.579 l 0.83177,0 c 0.80797,0 1.39636,0.547 1.41519,0.565 0.59037,0.5945 0.63349,1.4045 0.63498,1.427 l 5e-4,2.356 c 0,0.138 -0.11104,0.8075 -0.62358,1.3245 -0.50065,0.5055 -1.29127,0.5625 -1.36662,0.567 l -2.87202,5e-4 -0.009,-4.197 z m 6.84547,6.115 c 1.26104,-1.273 1.27541,-2.9635 1.27541,-2.9805 l 0,-3.8955 c 0,-1.9085 -1.1614,-3.102 -1.21097,-3.152 -1.38,-1.391 -3.06584,-1.407 -3.08269,-1.407 l -2.76595,0 c -0.63696,0 -1.8866,0.1845 -3.11244,1.4205 -1.28482,1.297 -1.19957,3.043 -1.19907,3.0455 l 9.9e-4,11.042 c 0,1.645 1.14703,2.8635 1.19908,2.918 1.32051,1.3325 2.67622,1.436 3.05989,1.436 0.0808,0 0.13086,-0.004 0.13483,-0.005 l 5.7148,-0.0025 0,-3.268 -4.83496,0 c -0.86002,0 -1.43551,-0.6115 -1.44691,-0.624 -0.61664,-0.6215 -0.57748,-1.4235 -0.57649,-1.4465 l -9.9e-4,-1.7305 3.70676,0 c 1.88115,0 3.0946,-1.3025 3.13871,-1.3505 z"
             inkscape:connector-curvature="0"
             style="fill:#ffffff" />
          <path
             mask="url(#mask-4)"
             id="Fill-38"
             d="m 228.11405,34.82545 0.17299,0 c 0.20175,0 0.36483,-0.0675 0.36483,-0.2325 0,-0.145 -0.10558,-0.242 -0.33657,-0.242 -0.0957,0 -0.16259,0.0095 -0.20125,0.0195 l 0,0.455 z m -0.01,0.901 -0.36483,0 0,-1.5885 c 0.14424,-0.0295 0.34549,-0.049 0.60523,-0.049 0.29742,0 0.43225,0.049 0.54725,0.1165 0.0863,0.068 0.15366,0.1935 0.15366,0.349 0,0.1745 -0.13433,0.31 -0.32616,0.368 l 0,0.0195 c 0.15316,0.058 0.23991,0.1745 0.28799,0.3875 0.0476,0.242 0.0768,0.339 0.115,0.397 l -0.39358,0 c -0.0481,-0.058 -0.0768,-0.2035 -0.12491,-0.3875 -0.0288,-0.1745 -0.12491,-0.252 -0.32666,-0.252 l -0.17299,0 0,0.6395 z m -0.97007,-0.833 c 0,0.707 0.51849,1.269 1.22981,1.269 0.69099,0 1.20056,-0.562 1.20056,-1.2595 0,-0.707 -0.50957,-1.279 -1.21048,-1.279 -0.7014,0 -1.21989,0.572 -1.21989,1.2695 z m 2.83336,0 c 0,0.9005 -0.7009,1.608 -1.61347,1.608 -0.90265,0 -1.62289,-0.7075 -1.62289,-1.608 0,-0.8815 0.72024,-1.589 1.62289,-1.589 0.91257,0 1.61347,0.7075 1.61347,1.589 z"
             inkscape:connector-curvature="0"
             style="fill:#ffffff" />
        </g>
      </g>
      <path
         transform="translate(0,52.362161)"
         id="Fill-10-4"
         d="m 203.53879,469.29415 c -19.75634,72.39917 -1.45972,152.7438 55.05034,209.25387 56.51007,56.51006 136.86043,74.81241 209.2596,55.05607 C 408.68697,712.56933 353.23784,678.42916 305.97292,631.16423 258.70799,583.89931 224.57355,528.45591 203.53879,469.29415"
         inkscape:connector-curvature="0"
         style="fill:#b1d04f;fill-opacity:1;fill-rule:evenodd;stroke:none;stroke-width:1" />
    </g>
  </g>
</svg>
